<mxfile host="www.draw.io" modified="2019-11-19T09:02:51.798Z" agent="Mozilla/5.0 (Windows NT 10.0; Win64; x64) AppleWebKit/537.36 (KHTML, like Gecko) Chrome/75.0.3770.80 Safari/537.36" etag="W9BKpQvchBq98PGEIECV" version="12.2.6" type="github" pages="1">
  <diagram id="IdHqrWxbUIfQEn7d7Ye1" name="Page-1">
    <mxGraphModel dx="2100" dy="1772" grid="1" gridSize="10" guides="1" tooltips="1" connect="1" arrows="1" fold="1" page="1" pageScale="1" pageWidth="850" pageHeight="1100" math="0" shadow="0">
      <root>
        <mxCell id="0"/>
        <mxCell id="1" parent="0"/>
        <mxCell id="5MoI0cr_Pmq36j2Hyj8P-24" style="edgeStyle=orthogonalEdgeStyle;rounded=0;orthogonalLoop=1;jettySize=auto;html=1;exitX=0.5;exitY=1;exitDx=0;exitDy=0;entryX=0.5;entryY=0;entryDx=0;entryDy=0;" parent="1" source="5MoI0cr_Pmq36j2Hyj8P-7" target="5MoI0cr_Pmq36j2Hyj8P-15" edge="1">
          <mxGeometry relative="1" as="geometry"/>
        </mxCell>
        <UserObject label="WebUI Shipment Creation on Existing Inbound Order" link="https://jira.int.kn/browse/TCL-20" id="5MoI0cr_Pmq36j2Hyj8P-7">
          <mxCell style="rounded=1;whiteSpace=wrap;html=1;" parent="1" vertex="1">
            <mxGeometry x="200" y="-20" width="120" height="60" as="geometry"/>
          </mxCell>
        </UserObject>
        <mxCell id="5MoI0cr_Pmq36j2Hyj8P-23" style="edgeStyle=orthogonalEdgeStyle;rounded=0;orthogonalLoop=1;jettySize=auto;html=1;exitX=0.5;exitY=1;exitDx=0;exitDy=0;entryX=0.5;entryY=0;entryDx=0;entryDy=0;" parent="1" source="5MoI0cr_Pmq36j2Hyj8P-8" target="5MoI0cr_Pmq36j2Hyj8P-7" edge="1">
          <mxGeometry relative="1" as="geometry"/>
        </mxCell>
        <UserObject label="WebUI Inbound Order Creation" TCL-2="https://jira.int.kn/browse/TCL-2" link="https://jira.int.kn/browse/TCL-2" id="5MoI0cr_Pmq36j2Hyj8P-8">
          <mxCell style="rounded=1;whiteSpace=wrap;html=1;" parent="1" vertex="1">
            <mxGeometry x="200" y="-120" width="120" height="60" as="geometry"/>
          </mxCell>
        </UserObject>
        <mxCell id="5MoI0cr_Pmq36j2Hyj8P-9" value="WebUI Putaway Directed" style="rounded=1;whiteSpace=wrap;html=1;" parent="1" vertex="1">
          <mxGeometry x="110" y="690" width="120" height="60" as="geometry"/>
        </mxCell>
        <mxCell id="b5oXsS9dEN0uz_ecKiTf-13" value="" style="edgeStyle=orthogonalEdgeStyle;rounded=0;orthogonalLoop=1;jettySize=auto;html=1;strokeColor=#EA6B66;strokeWidth=4;" parent="1" source="5MoI0cr_Pmq36j2Hyj8P-10" target="b5oXsS9dEN0uz_ecKiTf-2" edge="1">
          <mxGeometry relative="1" as="geometry"/>
        </mxCell>
        <mxCell id="5MoI0cr_Pmq36j2Hyj8P-10" value="WebUI Pallet Receiving - OverQuantity" style="rounded=1;whiteSpace=wrap;html=1;" parent="1" vertex="1">
          <mxGeometry x="-80" y="170" width="120" height="60" as="geometry"/>
        </mxCell>
        <UserObject label="" link="https://jira.int.kn/browse/TCL-28" id="5MoI0cr_Pmq36j2Hyj8P-31">
          <mxCell style="rounded=0;orthogonalLoop=1;jettySize=auto;html=1;exitX=1;exitY=0.5;exitDx=0;exitDy=0;strokeColor=#EA6B66;strokeWidth=4;entryX=0;entryY=0.5;entryDx=0;entryDy=0;" parent="1" source="5MoI0cr_Pmq36j2Hyj8P-14" target="b5oXsS9dEN0uz_ecKiTf-26" edge="1">
            <mxGeometry relative="1" as="geometry">
              <mxPoint x="110" y="485" as="targetPoint"/>
              <Array as="points"/>
            </mxGeometry>
          </mxCell>
        </UserObject>
        <mxCell id="5MoI0cr_Pmq36j2Hyj8P-14" value="GUI Pallet Receiving - UnderQuantity" style="rounded=1;whiteSpace=wrap;html=1;" parent="1" vertex="1">
          <mxGeometry x="-75" y="365" width="110" height="60" as="geometry"/>
        </mxCell>
        <UserObject label="Staging Location Assignment for Inbound Shipment" link="https://jira.int.kn/browse/TCL-20" id="5MoI0cr_Pmq36j2Hyj8P-15">
          <mxCell style="rounded=1;whiteSpace=wrap;html=1;" parent="1" vertex="1">
            <mxGeometry x="200" y="80" width="120" height="60" as="geometry"/>
          </mxCell>
        </UserObject>
        <mxCell id="5MoI0cr_Pmq36j2Hyj8P-16" value="WebUI Pallet Receiving" style="rounded=1;whiteSpace=wrap;html=1;" parent="1" vertex="1">
          <mxGeometry x="130" y="267.5" width="120" height="60" as="geometry"/>
        </mxCell>
        <mxCell id="5MoI0cr_Pmq36j2Hyj8P-21" value="WebUI Inbound Shipment Completion" style="rounded=1;whiteSpace=wrap;html=1;" parent="1" vertex="1">
          <mxGeometry x="200" y="940" width="120" height="60" as="geometry"/>
        </mxCell>
        <mxCell id="b5oXsS9dEN0uz_ecKiTf-1" value="RF Pallet&amp;nbsp; Receiving&amp;nbsp;" style="rounded=1;whiteSpace=wrap;html=1;" parent="1" vertex="1">
          <mxGeometry x="270" y="267.5" width="120" height="60" as="geometry"/>
        </mxCell>
        <mxCell id="b5oXsS9dEN0uz_ecKiTf-14" value="" style="edgeStyle=orthogonalEdgeStyle;rounded=0;orthogonalLoop=1;jettySize=auto;html=1;strokeColor=#EA6B66;strokeWidth=4;" parent="1" source="b5oXsS9dEN0uz_ecKiTf-2" target="5MoI0cr_Pmq36j2Hyj8P-14" edge="1">
          <mxGeometry relative="1" as="geometry"/>
        </mxCell>
        <mxCell id="b5oXsS9dEN0uz_ecKiTf-2" value="WebUI Pallet Receiving - Damaged" style="rounded=1;whiteSpace=wrap;html=1;" parent="1" vertex="1">
          <mxGeometry x="-80" y="267.5" width="120" height="60" as="geometry"/>
        </mxCell>
        <mxCell id="b5oXsS9dEN0uz_ecKiTf-3" value="" style="endArrow=classic;html=1;exitX=0.25;exitY=1;exitDx=0;exitDy=0;entryX=0.5;entryY=0;entryDx=0;entryDy=0;" parent="1" source="5MoI0cr_Pmq36j2Hyj8P-15" target="5MoI0cr_Pmq36j2Hyj8P-16" edge="1">
          <mxGeometry width="50" height="50" relative="1" as="geometry">
            <mxPoint x="-160" y="590" as="sourcePoint"/>
            <mxPoint x="-110" y="540" as="targetPoint"/>
          </mxGeometry>
        </mxCell>
        <mxCell id="b5oXsS9dEN0uz_ecKiTf-4" value="" style="endArrow=classic;html=1;entryX=0.5;entryY=0;entryDx=0;entryDy=0;" parent="1" target="b5oXsS9dEN0uz_ecKiTf-1" edge="1">
          <mxGeometry width="50" height="50" relative="1" as="geometry">
            <mxPoint x="290" y="140" as="sourcePoint"/>
            <mxPoint x="-110" y="540" as="targetPoint"/>
          </mxGeometry>
        </mxCell>
        <mxCell id="b5oXsS9dEN0uz_ecKiTf-10" value="" style="endArrow=classic;html=1;fillColor=#fa6800;strokeColor=#EA6B66;rounded=0;strokeWidth=4;exitX=0;exitY=0.5;exitDx=0;exitDy=0;entryX=1;entryY=0.5;entryDx=0;entryDy=0;" parent="1" source="5MoI0cr_Pmq36j2Hyj8P-15" target="5MoI0cr_Pmq36j2Hyj8P-10" edge="1">
          <mxGeometry width="50" height="50" relative="1" as="geometry">
            <mxPoint x="80" y="270" as="sourcePoint"/>
            <mxPoint x="50" y="350" as="targetPoint"/>
          </mxGeometry>
        </mxCell>
        <mxCell id="b5oXsS9dEN0uz_ecKiTf-15" value="" style="edgeStyle=orthogonalEdgeStyle;rounded=0;orthogonalLoop=1;jettySize=auto;html=1;strokeColor=#432D57;strokeWidth=4;fillColor=#76608a;" parent="1" source="b5oXsS9dEN0uz_ecKiTf-16" target="b5oXsS9dEN0uz_ecKiTf-19" edge="1">
          <mxGeometry relative="1" as="geometry"/>
        </mxCell>
        <mxCell id="b5oXsS9dEN0uz_ecKiTf-16" value="RF Pallet Receiving - OverQuantity" style="rounded=1;whiteSpace=wrap;html=1;" parent="1" vertex="1">
          <mxGeometry x="490" y="170" width="120" height="60" as="geometry"/>
        </mxCell>
        <mxCell id="b5oXsS9dEN0uz_ecKiTf-17" value="RF Pallet Receiving - UnderQuantity" style="rounded=1;whiteSpace=wrap;html=1;" parent="1" vertex="1">
          <mxGeometry x="495" y="365" width="110" height="60" as="geometry"/>
        </mxCell>
        <mxCell id="b5oXsS9dEN0uz_ecKiTf-18" value="" style="edgeStyle=orthogonalEdgeStyle;rounded=0;orthogonalLoop=1;jettySize=auto;html=1;strokeColor=#432D57;strokeWidth=4;fillColor=#76608a;" parent="1" source="b5oXsS9dEN0uz_ecKiTf-19" target="b5oXsS9dEN0uz_ecKiTf-17" edge="1">
          <mxGeometry relative="1" as="geometry"/>
        </mxCell>
        <mxCell id="b5oXsS9dEN0uz_ecKiTf-19" value="RF Pallet Receiving - Damaged" style="rounded=1;whiteSpace=wrap;html=1;" parent="1" vertex="1">
          <mxGeometry x="490" y="267.5" width="120" height="60" as="geometry"/>
        </mxCell>
        <mxCell id="b5oXsS9dEN0uz_ecKiTf-25" value="RF Putaway Directed" style="rounded=1;whiteSpace=wrap;html=1;" parent="1" vertex="1">
          <mxGeometry x="290" y="690" width="120" height="60" as="geometry"/>
        </mxCell>
        <mxCell id="b5oXsS9dEN0uz_ecKiTf-26" value="Putaway" style="rounded=1;whiteSpace=wrap;html=1;" parent="1" vertex="1">
          <mxGeometry x="200" y="430" width="120" height="60" as="geometry"/>
        </mxCell>
        <mxCell id="b5oXsS9dEN0uz_ecKiTf-29" value="" style="endArrow=classic;html=1;strokeColor=#432D57;strokeWidth=4;exitX=0;exitY=0.5;exitDx=0;exitDy=0;entryX=1;entryY=0.5;entryDx=0;entryDy=0;fillColor=#76608a;" parent="1" source="b5oXsS9dEN0uz_ecKiTf-17" target="b5oXsS9dEN0uz_ecKiTf-26" edge="1">
          <mxGeometry width="50" height="50" relative="1" as="geometry">
            <mxPoint x="-40" y="770" as="sourcePoint"/>
            <mxPoint x="320" y="540" as="targetPoint"/>
          </mxGeometry>
        </mxCell>
        <mxCell id="b5oXsS9dEN0uz_ecKiTf-33" value="" style="endArrow=classic;html=1;exitX=0.5;exitY=1;exitDx=0;exitDy=0;entryX=0.25;entryY=0;entryDx=0;entryDy=0;" parent="1" source="5MoI0cr_Pmq36j2Hyj8P-16" target="b5oXsS9dEN0uz_ecKiTf-26" edge="1">
          <mxGeometry width="50" height="50" relative="1" as="geometry">
            <mxPoint x="250" y="250" as="sourcePoint"/>
            <mxPoint x="240" y="440" as="targetPoint"/>
          </mxGeometry>
        </mxCell>
        <mxCell id="b5oXsS9dEN0uz_ecKiTf-34" value="" style="endArrow=classic;html=1;exitX=0.5;exitY=1;exitDx=0;exitDy=0;entryX=0.75;entryY=0;entryDx=0;entryDy=0;" parent="1" source="b5oXsS9dEN0uz_ecKiTf-1" target="b5oXsS9dEN0uz_ecKiTf-26" edge="1">
          <mxGeometry width="50" height="50" relative="1" as="geometry">
            <mxPoint x="250" y="250" as="sourcePoint"/>
            <mxPoint x="280" y="430" as="targetPoint"/>
          </mxGeometry>
        </mxCell>
        <mxCell id="b5oXsS9dEN0uz_ecKiTf-35" value="WebUI Putaway Undirected" style="rounded=1;whiteSpace=wrap;html=1;" parent="1" vertex="1">
          <mxGeometry x="-75" y="690" width="120" height="60" as="geometry"/>
        </mxCell>
        <mxCell id="EswywsCH6MP6w3gY_hoO-1" value="" style="edgeStyle=orthogonalEdgeStyle;rounded=0;orthogonalLoop=1;jettySize=auto;html=1;strokeWidth=4;strokeColor=#33FF33;" edge="1" parent="1" source="b5oXsS9dEN0uz_ecKiTf-36" target="b5oXsS9dEN0uz_ecKiTf-37">
          <mxGeometry relative="1" as="geometry"/>
        </mxCell>
        <mxCell id="b5oXsS9dEN0uz_ecKiTf-36" value="RF Putaway - Undirected" style="rounded=1;whiteSpace=wrap;html=1;" parent="1" vertex="1">
          <mxGeometry x="470" y="690" width="120" height="60" as="geometry"/>
        </mxCell>
        <mxCell id="b5oXsS9dEN0uz_ecKiTf-37" value="RF Putaway - Override" style="rounded=1;whiteSpace=wrap;html=1;" parent="1" vertex="1">
          <mxGeometry x="470" y="790" width="120" height="60" as="geometry"/>
        </mxCell>
        <mxCell id="b5oXsS9dEN0uz_ecKiTf-41" value="" style="endArrow=classic;html=1;strokeColor=#33FF33;strokeWidth=4;entryX=0.5;entryY=0;entryDx=0;entryDy=0;exitX=1;exitY=0.75;exitDx=0;exitDy=0;" parent="1" source="b5oXsS9dEN0uz_ecKiTf-26" target="b5oXsS9dEN0uz_ecKiTf-36" edge="1">
          <mxGeometry width="50" height="50" relative="1" as="geometry">
            <mxPoint x="330" y="490" as="sourcePoint"/>
            <mxPoint x="430" y="620" as="targetPoint"/>
          </mxGeometry>
        </mxCell>
        <mxCell id="b5oXsS9dEN0uz_ecKiTf-42" value="" style="endArrow=classic;html=1;strokeColor=#33FF33;strokeWidth=4;exitX=0.5;exitY=1;exitDx=0;exitDy=0;entryX=1;entryY=0.5;entryDx=0;entryDy=0;" parent="1" source="b5oXsS9dEN0uz_ecKiTf-37" target="5MoI0cr_Pmq36j2Hyj8P-21" edge="1">
          <mxGeometry width="50" height="50" relative="1" as="geometry">
            <mxPoint x="-50" y="890" as="sourcePoint"/>
            <mxPoint x="340" y="970" as="targetPoint"/>
          </mxGeometry>
        </mxCell>
        <mxCell id="b5oXsS9dEN0uz_ecKiTf-43" value="" style="endArrow=classic;html=1;entryX=0.5;entryY=0;entryDx=0;entryDy=0;exitX=0.25;exitY=1;exitDx=0;exitDy=0;" parent="1" source="b5oXsS9dEN0uz_ecKiTf-26" target="5MoI0cr_Pmq36j2Hyj8P-9" edge="1">
          <mxGeometry width="50" height="50" relative="1" as="geometry">
            <mxPoint x="200" y="337.5" as="sourcePoint"/>
            <mxPoint x="240" y="450" as="targetPoint"/>
            <Array as="points"/>
          </mxGeometry>
        </mxCell>
        <mxCell id="b5oXsS9dEN0uz_ecKiTf-44" value="" style="endArrow=classic;html=1;entryX=0.5;entryY=0;entryDx=0;entryDy=0;exitX=0.75;exitY=1;exitDx=0;exitDy=0;" parent="1" source="b5oXsS9dEN0uz_ecKiTf-26" target="b5oXsS9dEN0uz_ecKiTf-25" edge="1">
          <mxGeometry width="50" height="50" relative="1" as="geometry">
            <mxPoint x="300" y="490" as="sourcePoint"/>
            <mxPoint x="250" y="460" as="targetPoint"/>
          </mxGeometry>
        </mxCell>
        <mxCell id="b5oXsS9dEN0uz_ecKiTf-45" value="" style="endArrow=classic;html=1;entryX=0.25;entryY=0;entryDx=0;entryDy=0;exitX=0.5;exitY=1;exitDx=0;exitDy=0;" parent="1" source="5MoI0cr_Pmq36j2Hyj8P-9" target="5MoI0cr_Pmq36j2Hyj8P-21" edge="1">
          <mxGeometry width="50" height="50" relative="1" as="geometry">
            <mxPoint x="246.66666666666674" y="510" as="sourcePoint"/>
            <mxPoint x="200" y="570" as="targetPoint"/>
          </mxGeometry>
        </mxCell>
        <mxCell id="b5oXsS9dEN0uz_ecKiTf-46" value="" style="endArrow=classic;html=1;exitX=0.5;exitY=1;exitDx=0;exitDy=0;" parent="1" source="b5oXsS9dEN0uz_ecKiTf-25" edge="1">
          <mxGeometry width="50" height="50" relative="1" as="geometry">
            <mxPoint x="256.66666666666674" y="520" as="sourcePoint"/>
            <mxPoint x="290" y="939" as="targetPoint"/>
          </mxGeometry>
        </mxCell>
        <mxCell id="b5oXsS9dEN0uz_ecKiTf-47" value="" style="endArrow=classic;html=1;strokeColor=#FF00FF;strokeWidth=4;exitX=0.5;exitY=1;exitDx=0;exitDy=0;entryX=0;entryY=0.5;entryDx=0;entryDy=0;" parent="1" source="b5oXsS9dEN0uz_ecKiTf-35" target="5MoI0cr_Pmq36j2Hyj8P-21" edge="1">
          <mxGeometry width="50" height="50" relative="1" as="geometry">
            <mxPoint x="-80" y="890" as="sourcePoint"/>
            <mxPoint x="-30" y="840" as="targetPoint"/>
          </mxGeometry>
        </mxCell>
        <mxCell id="b5oXsS9dEN0uz_ecKiTf-48" value="" style="endArrow=classic;html=1;strokeColor=#FF00FF;strokeWidth=4;exitX=0;exitY=0.75;exitDx=0;exitDy=0;entryX=0.5;entryY=0;entryDx=0;entryDy=0;" parent="1" source="b5oXsS9dEN0uz_ecKiTf-26" target="b5oXsS9dEN0uz_ecKiTf-35" edge="1">
          <mxGeometry width="50" height="50" relative="1" as="geometry">
            <mxPoint x="-80" y="890" as="sourcePoint"/>
            <mxPoint x="-30" y="840" as="targetPoint"/>
          </mxGeometry>
        </mxCell>
        <mxCell id="b5oXsS9dEN0uz_ecKiTf-51" value="" style="endArrow=classic;html=1;strokeColor=#432D57;strokeWidth=4;exitX=1;exitY=0.5;exitDx=0;exitDy=0;entryX=0;entryY=0.5;entryDx=0;entryDy=0;" parent="1" source="5MoI0cr_Pmq36j2Hyj8P-15" target="b5oXsS9dEN0uz_ecKiTf-16" edge="1">
          <mxGeometry width="50" height="50" relative="1" as="geometry">
            <mxPoint x="430" y="312.38089425223217" as="sourcePoint"/>
            <mxPoint x="480" y="210" as="targetPoint"/>
            <Array as="points"/>
          </mxGeometry>
        </mxCell>
      </root>
    </mxGraphModel>
  </diagram>
</mxfile>
